<svg aria-hidden="true" style="position: absolute; width: 0; height: 0; overflow: hidden;" version="1.1" xmlns="http://www.w3.org/2000/svg" xmlns:xlink="http://www.w3.org/1999/xlink">
<defs>
<symbol id="icon-rocket" viewBox="0 0 32 32">
<path fill="#ec290f" style="fill: var(--color1, #ec290f)" d="M20.728 14.228c-0.781 0-1.516-0.304-2.068-0.857-1.14-1.141-1.14-2.996 0-4.136s2.997-1.14 4.136 0c0.552 0.552 0.857 1.287 0.857 2.068s-0.304 1.516-0.857 2.068c-0.552 0.552-1.287 0.857-2.068 0.857zM19.651 10.226c-0.594 0.594-0.594 1.561 0 2.156 0.288 0.288 0.671 0.446 1.078 0.446s0.79-0.159 1.078-0.446c0.288-0.288 0.447-0.671 0.447-1.078s-0.159-0.79-0.447-1.078c-0.594-0.594-1.561-0.594-2.156 0z"></path>
<path fill="#ec290f" style="fill: var(--color1, #ec290f)" d="M31.753 2.753c0-0.029 0-0.058 0-0.087 0-0.15-0.001-0.299-0.004-0.45-0.002-0.093-0.006-0.187-0.009-0.281-0.004-0.105-0.007-0.209-0.012-0.314-0.011-0.211-0.024-0.423-0.043-0.635-0.028-0.341-0.299-0.611-0.64-0.64-0.212-0.018-0.424-0.031-0.634-0.042-0.107-0.006-0.212-0.009-0.318-0.013-0.092-0.003-0.184-0.007-0.276-0.009-0.153-0.004-0.305-0.005-0.457-0.005-0.025 0-0.051 0-0.076 0-3.021 0.015-5.794 0.756-8.593 2.285-0.049 0.027-0.099 0.053-0.148 0.079-0.017 0.010-0.035 0.018-0.052 0.028-0.004 0.002-0.007 0.006-0.011 0.008-2.295 1.279-4.587 3.085-6.958 5.456-0.27 0.27-0.533 0.543-0.794 0.817l-4.609 0.35c-0.135 0.010-0.264 0.059-0.371 0.141l-7.229 5.501c-0.23 0.175-0.329 0.473-0.249 0.751s0.322 0.478 0.61 0.504l6.782 0.612 2.147 2.148c-0.761 0.174-1.537 0.6-2.201 1.264-0.398 0.398-0.717 0.844-0.951 1.331-0.306 0.647-0.977 2.314-1.687 4.079l-0.347 0.861c-0.105 0.261-0.044 0.558 0.154 0.757 0.134 0.134 0.313 0.205 0.495 0.205 0.088 0 0.177-0.017 0.262-0.051l0.892-0.36c1.75-0.705 3.404-1.372 4.053-1.677 0.483-0.233 0.93-0.552 1.327-0.949 0.664-0.664 1.090-1.439 1.264-2.2l2.084 2.084 0.612 6.782c0.026 0.288 0.226 0.53 0.504 0.61 0.064 0.018 0.129 0.027 0.194 0.027 0.215 0 0.423-0.099 0.557-0.276l5.5-7.228c0.082-0.107 0.131-0.236 0.141-0.371l0.34-4.473c0.3-0.284 0.598-0.572 0.892-0.866 2.373-2.373 4.18-4.666 5.459-6.962 0.002-0.002 0.003-0.005 0.005-0.007 0.006-0.011 0.012-0.022 0.018-0.033 0.058-0.105 0.114-0.211 0.17-0.316 1.473-2.746 2.189-5.473 2.204-8.436zM30.33 1.702c0.155 2.96-0.41 5.642-1.756 8.331l-6.575-6.575c2.688-1.346 5.369-1.911 8.331-1.756zM8.432 10.684l2.931-0.223c-0.495 0.572-0.97 1.149-1.421 1.73-0.002 0.003-0.006 0.005-0.008 0.008-0.037 0.048-0.072 0.097-0.109 0.145-0.189 0.246-0.376 0.493-0.557 0.74-0.050 0.069-0.097 0.137-0.147 0.206-0.171 0.237-0.341 0.474-0.503 0.712-0.083 0.12-0.159 0.24-0.239 0.36-0.124 0.186-0.249 0.371-0.367 0.556-0.105 0.165-0.202 0.327-0.303 0.491l-4.904-0.442 5.628-4.283zM18.139 21.619c-0.241 0.176-0.48 0.347-0.719 0.513-0.144 0.1-0.288 0.199-0.432 0.296-0.103 0.069-0.205 0.137-0.307 0.204-0.248 0.162-0.496 0.323-0.744 0.475l-3.505-3.506c-0-0-0-0-0.001-0.001s-0-0-0.001-0.001l-3.505-3.505c0.009-0.014 0.018-0.028 0.027-0.043 0.143-0.231 0.291-0.462 0.443-0.693 0.070-0.107 0.142-0.215 0.214-0.322 0.092-0.137 0.187-0.275 0.283-0.412 0.17-0.245 0.345-0.49 0.525-0.737 0.047-0.064 0.094-0.129 0.142-0.194l7.779 7.78c-0.067 0.049-0.133 0.097-0.2 0.146zM10.818 23.431c-0.286 0.286-0.603 0.513-0.939 0.675-0.529 0.25-1.899 0.807-3.34 1.387 0.581-1.442 1.137-2.809 1.385-3.335 0.164-0.341 0.392-0.658 0.677-0.944 0.605-0.605 1.361-0.939 1.982-0.939 0.342 0 0.644 0.102 0.857 0.314l0.002 0.002c0.599 0.602 0.314 1.902-0.625 2.84zM21.284 23.536l-4.283 5.628-0.433-4.806c0.182-0.111 0.364-0.22 0.548-0.338 0.174-0.111 0.349-0.23 0.523-0.346 0.131-0.088 0.262-0.172 0.393-0.262 0.228-0.156 0.456-0.32 0.684-0.484 0.078-0.056 0.156-0.11 0.235-0.168 0.24-0.175 0.479-0.357 0.718-0.54 0.054-0.042 0.109-0.081 0.163-0.123 0.003-0.003 0.006-0.006 0.009-0.009 0.556-0.431 1.108-0.885 1.656-1.357l-0.213 2.803zM22.906 17.519c-1.114 1.114-2.272 2.152-3.446 3.093l-8.039-8.039c0.941-1.174 1.979-2.333 3.093-3.446 2.252-2.252 4.308-3.849 6.199-4.975l7.168 7.168c-1.125 1.891-2.722 3.948-4.975 6.2z"></path>
</symbol>
<symbol id="icon-arrow-up2" viewBox="0 0 32 32">
<path d="M27.414 12.586l-10-10c-0.781-0.781-2.047-0.781-2.828 0l-10 10c-0.781 0.781-0.781 2.047 0 2.828s2.047 0.781 2.828 0l6.586-6.586v19.172c0 1.105 0.895 2 2 2s2-0.895 2-2v-19.172l6.586 6.586c0.39 0.39 0.902 0.586 1.414 0.586s1.024-0.195 1.414-0.586c0.781-0.781 0.781-2.047 0-2.828z"></path>
</symbol>
</defs>
</svg>
